<svg version="1.2" xmlns="http://www.w3.org/2000/svg" viewBox="0 0 222 51" width="222" height="51"><style>.a{fill:#009a3d}</style><path fill-rule="evenodd" class="a" d="m30.9 37.8v-2.3c-0.9 1-2 1.7-3.2 2.2-1.2 0.5-2.5 0.7-3.8 0.7-1.3 0-2.6-0.3-3.8-0.9-1.2-0.5-2.2-1.3-3.1-2.3q-0.7-0.9-1.3-1.8-0.5-1-0.9-2-0.3-1.1-0.5-2.2-0.2-1.1-0.1-2.2-0.1-1.1 0.1-2.1 0.2-1.1 0.5-2.1 0.4-1.1 0.9-2 0.6-1 1.3-1.8 0.7-0.7 1.5-1.3 0.8-0.7 1.8-1.1 0.9-0.4 1.9-0.6 1-0.2 2-0.2 1 0 1.9 0.3 0.9 0.2 1.8 0.6 0.8 0.4 1.6 0.9 0.8 0.6 1.4 1.3v-2.5h5v21.4zm-1.3-5.7q0.8-1.1 1.2-2.4 0.4-1.2 0.4-2.6 0-1.3-0.4-2.6-0.4-1.3-1.2-2.3-0.4-0.5-0.9-0.9-0.5-0.3-1.1-0.6-0.6-0.2-1.2-0.4-0.6-0.1-1.2 0-0.6-0.1-1.2 0.1-0.6 0.1-1.2 0.3-0.5 0.3-1 0.7-0.5 0.3-0.9 0.8-0.4 0.5-0.7 1-0.4 0.6-0.6 1.2-0.2 0.7-0.3 1.3-0.1 0.6-0.1 1.3 0 0.7 0.1 1.3 0.1 0.7 0.3 1.4 0.2 0.6 0.5 1.2 0.4 0.6 0.8 1.1 0.4 0.5 0.8 0.9 0.5 0.3 1.1 0.6 0.5 0.3 1.1 0.4 0.6 0.1 1.2 0.1 0.7 0 1.3-0.1 0.6-0.1 1.2-0.4 0.5-0.2 1-0.6 0.5-0.3 1-0.8z"/><path class="a" d="m59.1 37.8v-12q0-3.1-0.9-4.3-0.3-0.3-0.6-0.6-0.4-0.3-0.8-0.4-0.4-0.2-0.8-0.2-0.4-0.1-0.9 0-0.5-0.1-1 0-0.5 0.1-0.9 0.3-0.5 0.2-0.9 0.5-0.4 0.4-0.7 0.8-1 1.6-1 5.6v10.3h-4.9v-21.4h4.9v2q0.6-0.6 1.3-1.1 0.6-0.5 1.4-0.8 0.7-0.3 1.5-0.5 0.8-0.2 1.7-0.2 0.8 0 1.6 0.1 0.8 0.1 1.5 0.5 0.8 0.3 1.5 0.7 0.6 0.5 1.2 1.1 1.8 2 1.8 6.5v13.1z"/><path class="a" d="m116.5 37.8h-5v-21.4h5v2q0.2-0.3 0.5-0.6 0.3-0.3 0.6-0.5 0.3-0.3 0.6-0.5 0.4-0.2 0.7-0.4 0.3-0.2 0.6-0.3 0.4-0.1 0.7-0.1 0.4-0.1 0.7-0.1 0.3-0.1 0.7-0.1 0.9 0 1.7 0.2 0.8 0.2 1.6 0.7 0.7 0.4 1.4 1 0.6 0.6 1 1.3 0.6-0.8 1.3-1.4 0.7-0.6 1.5-1 0.9-0.4 1.8-0.6 0.9-0.2 1.8-0.2 7.2 0 7.3 8.8v13.2h-5v-11.9q0-0.5 0-1.1-0.1-0.5-0.2-1.1-0.1-0.5-0.2-1.1-0.2-0.5-0.4-1-0.2-0.3-0.5-0.6-0.2-0.2-0.6-0.4-0.3-0.2-0.7-0.2-0.3-0.1-0.7-0.1-0.5 0-0.9 0.1-0.4 0-0.8 0.3-0.4 0.2-0.8 0.5-0.3 0.3-0.5 0.6-0.3 0.6-0.5 1.2-0.2 0.6-0.3 1.3-0.1 0.6-0.2 1.2 0 0.6 0.1 1.3v11h-5v-11.8q0-5.7-3.3-5.7-0.5 0-0.9 0-0.5 0.1-0.9 0.3-0.4 0.2-0.7 0.6-0.3 0.3-0.5 0.6-0.3 0.6-0.5 1.2-0.2 0.6-0.4 1.2-0.1 0.7-0.1 1.3-0.1 0.6 0 1.3z"/><path fill-rule="evenodd" class="a" d="m158.7 38.2q-1.1-0.2-2.2-0.6-1-0.4-1.9-1-1-0.7-1.8-1.4-0.8-0.8-1.4-1.8-0.6-0.9-1-2-0.4-1-0.6-2.2-0.2-1.1-0.2-2.2 0-1.1 0.2-2.2 0.2-1.1 0.6-2.1 0.4-1 1.1-1.9 0.6-0.9 1.4-1.7c1.1-1 2.3-1.9 3.7-2.4 1.4-0.6 2.9-0.9 4.4-0.9 1.5 0 3 0.3 4.3 0.9 1.4 0.5 2.7 1.4 3.8 2.4 1 1.1 1.8 2.3 2.4 3.7 0.6 1.4 0.9 2.8 0.9 4.3 0 1.5-0.3 3-0.9 4.4-0.6 1.4-1.4 2.6-2.4 3.7q-0.8 0.8-1.8 1.4-0.9 0.6-2 1-1 0.4-2.2 0.6-1.1 0.2-2.2 0.2-1.1 0-2.2-0.2zm-3.1-15q-0.3 0.6-0.6 1.2-0.2 0.6-0.3 1.3-0.1 0.6-0.1 1.3 0 0.7 0.1 1.4 0.1 0.7 0.3 1.4 0.2 0.6 0.6 1.2 0.3 0.6 0.8 1.2 0.9 0.9 2.1 1.4 1.2 0.4 2.5 0.4 1.3 0 2.5-0.4 1.2-0.5 2.1-1.4 0.9-1.1 1.3-2.4 0.5-1.3 0.5-2.6 0-1.4-0.5-2.7-0.4-1.3-1.3-2.3-0.9-0.9-2.1-1.4-1.2-0.5-2.5-0.5-1.3 0-2.5 0.5-1.2 0.5-2.1 1.4-0.5 0.5-0.8 1z"/><path class="a" d="m186.1 37.8h-5v-21.4h5v2q0.2-0.3 0.5-0.6 0.3-0.3 0.6-0.5 0.3-0.3 0.6-0.5 0.3-0.2 0.7-0.4 0.3-0.2 0.6-0.3 0.3-0.1 0.6-0.1 0.3-0.1 0.6-0.1 0.4-0.1 0.7-0.1 0.5 0 1.1 0.1 0.5 0.1 1 0.3 0.5 0.1 1 0.4 0.5 0.2 1 0.5l-2.3 4.5q-0.3-0.2-0.6-0.4-0.3-0.2-0.7-0.3-0.3-0.1-0.7-0.2-0.3-0.1-0.7-0.1-4 0-4 6.1z"/><path fill-rule="evenodd" class="a" d="m208.6 38.3q-1.1-0.2-2.1-0.6-1-0.4-1.9-1-0.9-0.6-1.6-1.4-0.8-0.8-1.3-1.8-0.6-0.9-1-2-0.4-1-0.5-2.2-0.2-1.1-0.1-2.2-0.1-1.1 0.1-2.2 0.1-1.1 0.5-2.1 0.4-1.1 0.9-2.1 0.6-0.9 1.3-1.8c1-1 2.1-1.7 3.4-2.3 1.3-0.5 2.7-0.8 4.1-0.8 1.4 0 2.7 0.3 4 0.8 1.3 0.5 2.5 1.3 3.5 2.2q2.7 3 2.7 8.3v1.2h-15.3q0 0.5 0.1 1.1 0.1 0.6 0.4 1.1 0.2 0.5 0.5 1 0.3 0.5 0.7 1 0.4 0.3 0.8 0.6 0.5 0.3 1 0.5 0.5 0.2 1.1 0.3 0.5 0.1 1 0.1 0.5 0 0.9 0 0.4-0.1 0.7-0.2 0.4-0.1 0.8-0.3 0.4-0.2 0.7-0.4 0.4-0.3 0.8-0.7 0.3-0.4 0.6-0.8 0.4-0.4 0.7-0.8 0.3-0.5 0.5-0.9l4.2 2.3q-0.2 0.4-0.5 0.7-0.2 0.4-0.4 0.8-0.3 0.3-0.6 0.6-0.2 0.4-0.5 0.7-0.3 0.3-0.5 0.5-0.3 0.3-0.6 0.6-0.3 0.2-0.6 0.4-0.3 0.2-0.6 0.4-0.3 0.2-0.6 0.4-0.4 0.2-0.7 0.3-0.3 0.1-0.7 0.2-0.3 0.2-0.7 0.2-0.3 0.1-0.7 0.2-0.4 0.1-0.8 0.1-0.4 0.1-0.8 0.1-0.4 0-0.8 0-1 0-2.1-0.1zm-2.5-15.3q-0.1 0.2-0.2 0.4 0 0.2-0.1 0.4-0.1 0.3-0.1 0.5h9.9q-0.1-0.9-0.6-1.7-0.4-0.7-1.1-1.3-0.7-0.5-1.6-0.8-0.8-0.3-1.7-0.2-0.4 0-0.8 0-0.5 0.1-0.9 0.2-0.4 0.2-0.7 0.4-0.4 0.2-0.7 0.4-0.2 0.2-0.4 0.3-0.1 0.2-0.2 0.3-0.2 0.2-0.3 0.3-0.1 0.2-0.2 0.4-0.2 0.2-0.3 0.4z"/><path fill-rule="evenodd" class="a" d="m221.9 47.5v3.6h-221.9v-50.3h94.6v37h-5v-2.2q-0.6 0.6-1.4 1.2-0.7 0.5-1.6 0.9-0.9 0.3-1.8 0.5-0.9 0.2-1.8 0.2-1 0-2-0.2-1-0.2-2-0.6-0.9-0.4-1.8-1-0.8-0.6-1.5-1.4-0.7-0.8-1.2-1.8-0.6-1-1-2-0.3-1-0.5-2.1-0.2-1.1-0.1-2.2-0.1-1.1 0.1-2.2 0.2-1.1 0.5-2.1 0.4-1.1 1-2 0.5-0.9 1.2-1.7c0.9-1 1.9-1.9 3.1-2.4 1.2-0.6 2.5-0.9 3.8-0.9 1.4 0 2.7 0.3 3.9 0.8 1.2 0.5 2.2 1.3 3.1 2.3v-14.5h-86v43.1h86.2zm-133.7-15.5q0.8-1 1.3-2.3 0.4-1.3 0.4-2.6 0-1.4-0.4-2.6-0.5-1.3-1.3-2.4-0.4-0.4-0.9-0.8-0.5-0.4-1.1-0.6-0.5-0.3-1.1-0.4-0.7-0.1-1.3-0.1-0.6 0-1.2 0.1-0.6 0.1-1.1 0.4-0.6 0.2-1.1 0.6-0.4 0.4-0.8 0.8-0.5 0.5-0.8 1.1-0.3 0.6-0.5 1.2-0.2 0.6-0.3 1.3-0.1 0.6-0.1 1.3 0 0.6 0 1.3 0.1 0.7 0.3 1.3 0.3 0.7 0.6 1.2 0.3 0.6 0.7 1.2 0.4 0.4 0.9 0.8 0.5 0.4 1 0.7 0.6 0.2 1.2 0.3 0.6 0.2 1.2 0.2 0.6 0 1.2-0.1 0.6-0.1 1.2-0.4 0.6-0.2 1.1-0.6 0.5-0.4 0.9-0.8z"/></svg>