<?xml version="1.0" encoding="utf-8"?>
<!-- Generator: Adobe Illustrator 27.2.0, SVG Export Plug-In . SVG Version: 6.00 Build 0)  -->
<svg version="1.1" id="Layer_1" xmlns="http://www.w3.org/2000/svg" xmlns:xlink="http://www.w3.org/1999/xlink" x="0px" y="0px"
	 viewBox="0 0 30 30" style="enable-background:new 0 0 30 30;" xml:space="preserve">
<style type="text/css">
	.st0{filter:url(#filter-2);}
	.st1{fill-rule:evenodd;clip-rule:evenodd;}
	.st2{fill-rule:evenodd;clip-rule:evenodd;fill:#EF4136;}
	.st3{fill-rule:evenodd;clip-rule:evenodd;fill:#F6E000;}
</style>
<filter  filterUnits="objectBoundingBox" height="120.3%" id="filter-2" width="120.3%" x="-10.1%" y="-10.1%">
	<feOffset  dx="0" dy="0" in="SourceAlpha" result="shadowOffsetOuter1"></feOffset>
	<feGaussianBlur  in="shadowOffsetOuter1" result="shadowBlurOuter1" stdDeviation="2.5"></feGaussianBlur>
	
		<feColorMatrix  in="shadowBlurOuter1" type="matrix" values="0 0 0 0 0.0941176471   0 0 0 0 0.0941176471   0 0 0 0 0.0941176471  0 0 0 0.384369339 0">
		</feColorMatrix>
</filter>
<g id="Home-Button-_x2F_-Rizk-Logo">
	<g id="Oval">
		<g class="st0">
			<circle id="path-1_00000113349033217840534340000004094613305269920432_" class="st1" cx="15" cy="14.9" r="15"/>
		</g>
		<g>
			<circle id="path-1_00000071534125579865989930000006452685685175085959_" class="st2" cx="15" cy="14.9" r="15"/>
		</g>
	</g>
	<g id="Page-1" transform="translate(20.000000, 22.000000)">
		<path id="Fill-1" class="st3" d="M-3.9-12.6c0.7,0,1,0,1.7,0c0,0,0,0,0.1,0c0.5,0,0.9,0.1,1.2,0.3c0.2,0.1,0.3,0.3,0.3,0.5
			c0,0.1,0.1,0.3,0.1,0.5c0,0.1,0,0.2-0.1,0.4c0,0.2-0.1,0.3-0.2,0.5C-0.9-10.3-1-10.1-1.1-10c-0.1,0.2-0.3,0.3-0.4,0.3
			c-0.4,0.2-1,0.3-1.5,0.3c-0.8,0-1.2,0.1-2,0.1C-4.7-10.4-4.3-11.5-3.9-12.6 M-6.6-4.8c0.7,2,1.3,3.9,2,5.9
			c2.1-0.2,4.2-0.5,6.4-0.7c-0.7-2-1.4-3.9-2.1-5.9c0.6-0.1,1.2-0.4,1.8-0.6c0.6-0.3,1.3-0.6,1.8-1.1c0.4-0.3,0.7-0.7,0.9-0.9
			c0.2-0.3,0.5-0.6,0.7-1s0.4-0.8,0.5-1.1c0.2-0.8,0.3-1.5,0.4-2.1c0-1.4-0.9-4.6-5.9-4.6c-4.7,0-9.4,0-14.1,0
			c1.3,1.1,2.6,2.1,4,3.1c0,0,0,0.1,0,0.1C-12.2-8.3-14-2.8-15.7,2.6c2.3-0.4,4.7-0.7,7-1C-8-0.5-7.3-2.6-6.6-4.8"/>
	</g>
</g>
</svg>
